<?xml version="1.0" encoding="UTF-8" standalone="no"?>
<svg width="324.115mm" height="317.765mm"
 xmlns="http://www.w3.org/2000/svg" xmlns:xlink="http://www.w3.org/1999/xlink"  version="1.2" baseProfile="tiny">
<desc>Created by HiQPdf</desc>
<defs>
</defs>
<g fill="none" stroke="black" stroke-width="1" fill-rule="evenodd" stroke-linecap="square" stroke-linejoin="bevel" >

<g fill="#000000" fill-opacity="1" stroke="#000000" stroke-opacity="1" stroke-width="1" stroke-linecap="square" stroke-linejoin="miter" stroke-miterlimit="2" transform="matrix(1,0,0,1,0,0)"
>
</g>

<g fill="#000000" fill-opacity="1" stroke="#000000" stroke-opacity="1" stroke-width="1" stroke-linecap="square" stroke-linejoin="miter" stroke-miterlimit="2" transform="matrix(1,0,0,1,0,0)"
>
</g>

<g fill="#000000" fill-opacity="1" stroke="#000000" stroke-opacity="1" stroke-width="1" stroke-linecap="square" stroke-linejoin="miter" stroke-miterlimit="2" transform="matrix(1,0,0,1,0,0)"
>
</g>

<g fill="#000000" fill-opacity="1" stroke="#000000" stroke-opacity="1" stroke-width="1" stroke-linecap="square" stroke-linejoin="miter" stroke-miterlimit="2" transform="matrix(1.0159,0,0,1.0159,46.2877,6.49426)"
>
</g>

<g fill="#000000" fill-opacity="1" stroke="#000000" stroke-opacity="1" stroke-width="1" stroke-linecap="square" stroke-linejoin="miter" stroke-miterlimit="2" transform="matrix(1.0159,0,0,1.0159,46.2877,6.49426)"
>
</g>

<g fill="#000000" fill-opacity="1" stroke="#000000" stroke-opacity="1" stroke-width="1" stroke-linecap="square" stroke-linejoin="miter" stroke-miterlimit="2" transform="matrix(0.10159,0,0,0.10159,46.2877,6.49426)"
>
</g>

<g fill="#000000" fill-opacity="1" stroke="none" transform="matrix(0.10159,0,0,0.10159,46.2877,6.49426)"
>
<path vector-effect="none" fill-rule="nonzero" d="M11011.5,5879.5 C11011.5,8736.69 8695.26,11052.9 5838.08,11052.9 C2980.89,11052.9 664.681,8736.69 664.681,5879.5 C664.681,3022.31 2980.89,706.107 5838.08,706.107 C8695.26,706.107 11011.5,3022.31 11011.5,5879.5 M6299,10180 C6624,10169 6885,10150 7185,10115 C7666,10059 8244,9939 8391,9865 C8455,9832 8788,9594 8789,9579 C8791,9562 8172,9146 7968,9027 L7920,9000 L7863,9024 C7741,9075 7668,9091 7544,9097 L7423,9103 L7416,9212 C7407,9364 7367,9477 7296,9552 C7282,9567 7270,9583 7270,9587 C7270,9591 7303,9627 7342,9667 L7414,9740 L5845,9740 L4275,9740 L4358,9664 L4440,9588 L4410,9554 C4344,9478 4304,9358 4292,9200 L4285,9105 L4150,9099 C4036,9093 4000,9087 3915,9060 C3860,9042 3802,9021 3787,9013 C3760,9000 3756,9001 3707,9031 C3648,9068 3497,9166 3270,9313 C3061,9449 2890,9571 2896,9581 C2914,9611 3251,9842 3323,9875 C3409,9914 3947,10032 4205,10069 C4883,10166 5600,10204 6299,10180 M6976,9445 C7029,9429 7079,9390 7103,9344 C7124,9304 7137,9219 7149,9055 C7155,8978 7164,8850 7170,8770 C7176,8690 7187,8560 7195,8480 C7231,8110 7242,7934 7230,7889 C7214,7832 7149,7766 7093,7751 C7063,7743 6710,7740 5838,7742 L4625,7745 L4578,7772 C4528,7802 4492,7851 4480,7906 C4472,7939 4525,8694 4550,8915 C4555,8965 4564,9063 4570,9134 C4575,9205 4585,9281 4592,9302 C4608,9356 4675,9428 4725,9445 C4786,9467 6904,9467 6976,9445 M2755,9295 C2837,9237 3121,9057 3320,8937 C3411,8882 3492,8831 3501,8823 C3516,8810 3513,8802 3471,8730 C3446,8687 3421,8651 3416,8650 C3394,8649 2857,8855 2655,8943 C2408,9049 2380,9062 2380,9071 C2380,9076 2441,9143 2516,9220 C2670,9378 2648,9371 2755,9295 M9150,9233 C9214,9168 9276,9103 9289,9088 L9313,9060 L9204,9009 C9060,8942 8829,8846 8655,8781 C8224,8622 8272,8629 8225,8715 C8210,8743 8191,8773 8182,8783 C8166,8801 8167,8803 8189,8821 C8201,8831 8246,8861 8289,8887 C8512,9024 8779,9193 8890,9266 C8959,9312 9019,9350 9025,9350 C9031,9350 9087,9297 9150,9233 M2293,8775 C2470,8692 3092,8449 3199,8420 C3223,8414 3267,8398 3296,8385 L3350,8361 L3350,8283 C3350,8174 3373,8043 3415,7921 C3434,7863 3450,7815 3450,7815 C3450,7814 3415,7821 3373,7830 C3218,7864 2870,7964 2655,8037 C2438,8110 2020,8275 1907,8332 C1840,8366 1837,8351 1943,8510 C2038,8653 2168,8820 2184,8820 C2191,8820 2240,8800 2293,8775 M4260,8768 C4260,8744 4251,8644 4240,8545 C4229,8446 4220,8340 4220,8310 C4220,8280 4216,8251 4212,8245 C4208,8240 4168,8217 4123,8195 C4077,8174 4040,8152 4040,8148 C4040,8144 4059,8140 4083,8139 C4106,8139 4143,8136 4165,8132 L4205,8125 L4205,7965 C4205,7812 4206,7802 4232,7747 C4315,7569 4460,7471 4640,7470 L4715,7469 L4670,7432 C4575,7354 4426,7201 4363,7118 C4327,7069 4295,7030 4291,7030 C4267,7030 4084,7251 3980,7407 C3776,7711 3630,8084 3630,8303 C3630,8498 3724,8650 3903,8741 C4000,8790 4071,8808 4178,8809 L4260,8810 L4260,8768 M7659,8795 C7873,8744 8028,8586 8060,8385 C8108,8086 7863,7532 7495,7108 C7458,7065 7424,7030 7420,7030 C7416,7030 7381,7072 7342,7123 C7269,7219 7103,7386 7038,7430 C7017,7444 7000,7458 7000,7461 C7000,7465 7042,7470 7093,7472 C7215,7478 7283,7506 7367,7584 C7413,7627 7440,7663 7468,7718 L7505,7794 L7505,7961 L7504,8128 L7555,8134 C7582,8137 7620,8140 7638,8140 C7655,8140 7670,8143 7670,8148 C7670,8152 7639,8170 7602,8187 C7486,8241 7495,8220 7470,8500 C7459,8635 7447,8760 7444,8778 L7438,8810 L7516,8810 C7560,8810 7624,8803 7659,8795 M9568,8734 C9649,8629 9821,8368 9817,8356 C9806,8323 9266,8104 8915,7990 C8746,7936 8307,7820 8268,7820 C8245,7820 8245,7821 8280,7920 C8317,8029 8340,8160 8340,8270 C8340,8344 8343,8359 8358,8365 C8367,8369 8438,8394 8515,8420 C8785,8512 9068,8622 9335,8739 C9423,8778 9500,8808 9505,8806 C9511,8805 9539,8772 9568,8734 M1766,8064 C2309,7824 2956,7613 3438,7520 C3517,7505 3585,7488 3589,7484 C3594,7479 3616,7439 3640,7396 C3674,7333 3679,7318 3664,7325 C3628,7340 3538,7349 3513,7339 C3491,7331 3489,7326 3492,7273 L3495,7216 L3580,7199 C3627,7190 3691,7180 3724,7177 C3789,7171 3785,7174 3865,7075 C3896,7037 3971,6952 4032,6888 C4127,6786 4138,6770 4117,6770 C4082,6770 3747,6816 3615,6839 C3178,6915 2547,7100 1975,7320 C1652,7444 1458,7525 1453,7536 C1447,7552 1491,7667 1562,7820 C1610,7922 1698,8090 1704,8090 C1706,8090 1734,8078 1766,8064 M10068,7907 C10149,7743 10230,7559 10230,7541 C10230,7536 10218,7527 10203,7522 C10187,7516 10126,7490 10065,7465 C9386,7178 8582,6926 8057,6835 C7916,6810 7618,6770 7578,6770 C7563,6770 7586,6799 7674,6890 C7737,6956 7814,7041 7843,7078 C7913,7165 7915,7166 7985,7174 C8042,7181 8065,7186 8160,7210 C8200,7221 8200,7221 8200,7268 C8200,7294 8196,7321 8191,7328 C8182,7343 8111,7346 8060,7335 C8044,7331 8030,7331 8030,7335 C8030,7344 8111,7490 8116,7490 C8140,7490 8424,7551 8565,7587 C8742,7632 9107,7738 9178,7765 C9199,7773 9294,7808 9390,7844 C9565,7908 9700,7962 9880,8038 C9932,8060 9977,8077 9981,8074 C9985,8072 10024,7997 10068,7907 M7449.33,5965.39 C7449.33,5086.19 6736.59,4373.45 5857.39,4373.45 C4978.18,4373.45 4265.45,5086.19 4265.45,5965.39 C4265.45,6844.6 4978.18,7557.33 5857.39,7557.33 C6736.59,7557.33 7449.33,6844.6 7449.33,5965.39 M1462,7204 C1694,7115 1921,7031 1985,7010 C2024,6998 2060,6983 2067,6976 C2077,6967 2071,6930 2040,6805 C1929,6359 1902,5862 1965,5437 C1995,5232 2017,5130 2067,4975 C2202,4553 2434,4152 2769,3755 C3007,3474 3387,3135 3730,2899 C3988,2721 4356,2534 4653,2430 C5122,2267 5671,2191 6100,2231 C6591,2275 7011,2400 7475,2639 C7751,2782 7884,2864 8115,3039 C8515,3339 8833,3652 9090,3995 C9284,4255 9458,4536 9437,4556 C9430,4562 9382,4597 9329,4632 L9234,4697 L9209,4678 C9173,4648 9081,4604 9014,4584 C8933,4560 8766,4560 8686,4584 C8593,4612 8517,4654 8451,4715 C8343,4816 8279,4933 8256,5076 C8245,5148 8245,5148 8185,5193 C8116,5246 8077,5292 8048,5356 C7992,5484 8132,5590 8359,5590 C8419,5590 8432,5594 8470,5621 C8596,5712 8777,5760 8920,5741 C9065,5722 9181,5660 9283,5550 C9354,5473 9433,5320 9402,5320 C9397,5320 9357,5337 9314,5359 C9146,5441 8938,5507 8776,5529 C8677,5543 8471,5543 8394,5529 C8290,5511 8211,5480 8174,5444 C8122,5391 8131,5341 8204,5271 C8245,5232 8249,5234 8274,5303 C8284,5330 8303,5364 8315,5378 L8338,5405 L8522,5405 C8677,5405 8721,5401 8810,5382 C9067,5324 9358,5205 9556,5075 C9594,5050 9629,5030 9635,5030 C9665,5030 9735,5424 9751,5685 C9771,6010 9725,6445 9634,6795 C9615,6872 9598,6943 9597,6953 C9595,6967 9649,6991 9885,7081 C10045,7142 10206,7203 10243,7217 C10284,7233 10314,7240 10320,7234 C10340,7214 10436,6810 10474,6585 C10511,6371 10531,6099 10531,5829 C10531,5405 10487,5073 10375,4645 C10262,4212 10005,3651 9738,3252 C9401,2749 8939,2274 8475,1953 C8111,1701 7634,1460 7238,1326 C6912,1217 6532,1138 6180,1109 C6000,1094 5496,1103 5330,1124 C4781,1195 4343,1327 3850,1571 C3150,1916 2584,2390 2080,3050 C1744,3492 1478,4017 1326,4542 C1239,4842 1173,5198 1149,5504 C1142,5592 1140,5764 1143,5960 C1149,6266 1165,6445 1209,6700 C1248,6926 1334,7240 1356,7240 C1363,7240 1410,7224 1462,7204 M9131,6740 C9161,6683 9166,6679 9216,6664 C9248,6655 9270,6643 9270,6635 C9270,6627 9244,6608 9213,6593 C9161,6568 9153,6560 9134,6510 C9107,6441 9088,6436 9070,6491 C9050,6552 9026,6576 8969,6595 C8906,6616 8907,6635 8973,6660 C9035,6684 9043,6691 9059,6737 C9071,6772 9088,6800 9096,6800 C9097,6800 9113,6773 9131,6740 M4080,6597 C4080,6595 4074,6571 4066,6544 C4019,6384 4001,6149 4012,5840 C4018,5654 4031,5570 4079,5408 C4097,5345 4097,5340 4082,5340 C4052,5340 3966,5396 3921,5445 C3829,5545 3810,5632 3810,5960 C3810,6301 3828,6391 3917,6490 C3966,6544 4080,6619 4080,6597 M7683,6579 C7783,6528 7833,6467 7873,6347 C7891,6293 7894,6253 7898,6025 C7901,5821 7899,5746 7887,5676 C7867,5561 7825,5475 7760,5417 C7715,5377 7631,5326 7623,5334 C7621,5335 7633,5393 7649,5461 C7689,5629 7698,5698 7706,5880 C7714,6073 7698,6291 7665,6450 C7651,6517 7637,6577 7633,6585 C7626,6605 7633,6604 7683,6579 M2596.79,6431.81 C2596.79,6376.87 2552.25,6332.33 2497.31,6332.33 C2442.36,6332.33 2397.82,6376.87 2397.82,6431.81 C2397.82,6486.75 2442.36,6531.3 2497.31,6531.3 C2552.25,6531.3 2596.79,6486.75 2596.79,6431.81 M3425,6303 C3452,6252 3460,6245 3505,6230 C3533,6221 3555,6207 3555,6200 C3555,6193 3530,6176 3500,6161 C3451,6137 3444,6130 3425,6081 C3414,6051 3399,6025 3392,6022 C3385,6020 3373,6035 3364,6057 C3335,6130 3327,6139 3273,6162 C3210,6188 3207,6207 3265,6227 C3316,6244 3347,6274 3361,6319 C3382,6384 3381,6384 3425,6303 M8594.93,6144.29 C8594.93,6088.48 8549.69,6043.24 8493.88,6043.24 C8438.07,6043.24 8392.83,6088.48 8392.83,6144.29 C8392.83,6200.1 8438.07,6245.34 8493.88,6245.34 C8549.69,6245.34 8594.93,6200.1 8594.93,6144.29 M9433.3,6085.23 C9433.3,6054.57 9408.45,6029.72 9377.79,6029.72 C9347.14,6029.72 9322.29,6054.57 9322.29,6085.23 C9322.29,6115.88 9347.14,6140.74 9377.79,6140.74 C9408.45,6140.74 9433.3,6115.88 9433.3,6085.23 M3010,5611 L3010,5461 L3116,5351 C3174,5290 3226,5240 3231,5240 C3236,5240 3240,5274 3240,5316 L3240,5393 L3342,5496 C3398,5553 3447,5600 3452,5600 C3456,5600 3460,5468 3460,5307 L3460,5014 L3209,4695 C2930,4338 2902,4306 2885,4320 C2879,4325 2806,4418 2724,4526 C2642,4634 2524,4788 2463,4868 L2350,5012 L2350,5312 C2350,5552 2353,5609 2363,5603 C2370,5599 2419,5550 2473,5494 C2562,5402 2570,5390 2570,5354 C2570,5301 2581,5240 2590,5240 C2594,5240 2643,5290 2699,5351 L2800,5462 L2800,5611 L2800,5760 L2905,5760 L3010,5760 L3010,5611 M3878.5,4835.55 C3878.5,4805.54 3854.17,4781.21 3824.15,4781.21 C3794.14,4781.21 3769.81,4805.54 3769.81,4835.55 C3769.81,4865.57 3794.14,4889.9 3824.15,4889.9 C3854.17,4889.9 3878.5,4865.57 3878.5,4835.55 M7820,4662 C7839,4611 7873,4574 7908,4566 C7974,4552 7976,4521 7912,4502 C7865,4488 7833,4452 7824,4404 C7817,4368 7797,4344 7781,4354 C7776,4358 7768,4375 7765,4393 C7751,4455 7733,4478 7678,4498 C7612,4522 7605,4544 7657,4561 C7728,4584 7737,4593 7770,4683 C7783,4721 7801,4713 7820,4662 M4029,4493 C4035,4477 4049,4426 4060,4377 C4084,4273 4100,4232 4135,4185 C4178,4130 4240,4095 4332,4075 C4450,4050 4487,4029 4474,3996 C4466,3975 4422,3957 4340,3941 C4256,3924 4193,3891 4147,3841 C4103,3792 4087,3755 4055,3632 C4014,3469 3987,3471 3940,3644 C3886,3845 3824,3906 3635,3946 C3485,3978 3480,4032 3626,4066 C3664,4075 3712,4087 3733,4092 C3779,4103 3851,4166 3885,4225 C3899,4247 3919,4306 3930,4355 C3959,4475 3978,4520 4000,4520 C4010,4520 4022,4508 4029,4493 M8450,4165.95 C8450,4135.83 8425.58,4111.4 8395.45,4111.4 C8365.32,4111.4 8340.9,4135.83 8340.9,4165.95 C8340.9,4196.08 8365.32,4220.51 8395.45,4220.51 C8425.58,4220.51 8450,4196.08 8450,4165.95 M7276,4144 C7296,4074 7332,4033 7397,4004 C7428,3990 7450,3974 7450,3965 C7450,3956 7428,3940 7398,3926 C7329,3896 7306,3869 7278,3790 C7265,3752 7249,3725 7241,3725 C7233,3725 7215,3755 7200,3793 C7164,3880 7157,3888 7082,3921 C7005,3956 7004,3974 7075,4001 C7137,4024 7183,4075 7206,4144 C7227,4209 7228,4210 7245,4203 C7253,4200 7267,4174 7276,4144 M3315.33,4056.74 C3315.33,4026.88 3291.13,4002.68 3261.28,4002.68 C3231.42,4002.68 3207.22,4026.88 3207.22,4056.74 C3207.22,4086.59 3231.42,4110.8 3261.28,4110.8 C3291.13,4110.8 3315.33,4086.59 3315.33,4056.74 M4961.67,3979.8 C4961.67,3949.47 4937.08,3924.89 4906.75,3924.89 C4876.43,3924.89 4851.84,3949.47 4851.84,3979.8 C4851.84,4010.13 4876.43,4034.71 4906.75,4034.71 C4937.08,4034.71 4961.67,4010.13 4961.67,3979.8 M6612.56,3967.32 C6612.56,3936.76 6587.78,3911.98 6557.22,3911.98 C6526.65,3911.98 6501.88,3936.76 6501.88,3967.32 C6501.88,3997.88 6526.65,4022.66 6557.22,4022.66 C6587.78,4022.66 6612.56,3997.88 6612.56,3967.32 M8103,3826 C8125,3773 8144,3755 8196,3737 C8217,3729 8235,3717 8235,3710 C8235,3697 8231,3694 8165,3662 C8133,3647 8122,3633 8104,3589 C8092,3559 8077,3535 8070,3535 C8063,3535 8048,3560 8036,3590 C8014,3644 8006,3651 7936,3682 C7892,3701 7893,3717 7938,3729 C7993,3744 8026,3773 8046,3825 C8055,3850 8068,3870 8074,3870 C8080,3870 8093,3850 8103,3826 M5911,3791 C5931,3743 5941,3734 6013,3706 C6062,3686 6059,3662 6006,3643 C5952,3625 5934,3606 5911,3546 C5886,3478 5866,3475 5846,3538 C5826,3596 5811,3612 5748,3639 C5721,3650 5700,3664 5700,3669 C5700,3675 5726,3692 5758,3707 C5809,3732 5818,3741 5843,3793 C5858,3825 5875,3848 5880,3845 C5886,3842 5899,3817 5911,3791 M6774,3578 C6781,3565 6793,3530 6800,3500 C6821,3407 6868,3332 6923,3303 C6941,3294 6989,3277 7030,3265 C7124,3239 7128,3222 7045,3196 C6939,3163 6910,3148 6874,3107 C6832,3061 6818,3029 6800,2942 C6785,2870 6759,2828 6740,2846 C6733,2853 6717,2898 6703,2946 C6660,3102 6618,3148 6485,3185 C6420,3204 6390,3224 6405,3239 C6411,3244 6444,3256 6480,3265 C6624,3302 6656,3336 6706,3502 C6738,3611 6747,3621 6774,3578 M3621.42,3535.51 C3621.42,3505.36 3596.97,3480.91 3566.82,3480.91 C3536.66,3480.91 3512.22,3505.36 3512.22,3535.51 C3512.22,3565.67 3536.66,3590.11 3566.82,3590.11 C3596.97,3590.11 3621.42,3565.67 3621.42,3535.51 M5236,3449 C5257,3374 5307,3316 5376,3285 C5431,3261 5446,3235 5413,3223 C5300,3185 5264,3150 5234,3051 C5210,2968 5186,2973 5155,3069 C5132,3140 5098,3175 5025,3203 C4992,3216 4964,3233 4962,3241 C4960,3251 4980,3266 5020,3284 C5091,3317 5133,3364 5156,3435 C5190,3538 5210,3542 5236,3449 M4437,3320 C4462,3271 4470,3263 4515,3248 C4583,3226 4584,3206 4519,3185 C4471,3169 4466,3164 4438,3104 C4422,3069 4403,3040 4396,3040 C4389,3040 4376,3062 4366,3089 C4346,3146 4329,3163 4278,3179 C4209,3201 4209,3230 4276,3244 C4316,3253 4343,3282 4370,3344 C4394,3400 4397,3399 4437,3320 M7530.16,3137.27 C7530.16,3106.39 7505.13,3081.35 7474.25,3081.35 C7443.36,3081.35 7418.33,3106.39 7418.33,3137.27 C7418.33,3168.15 7443.36,3193.19 7474.25,3193.19 C7505.13,3193.19 7530.16,3168.15 7530.16,3137.27 M5960.42,2849.87 C5960.42,2794.82 5915.79,2750.19 5860.73,2750.19 C5805.68,2750.19 5761.05,2794.82 5761.05,2849.87 C5761.05,2904.93 5805.68,2949.56 5860.73,2949.56 C5915.79,2949.56 5960.42,2904.93 5960.42,2849.87 M5217.71,2634.96 C5217.71,2604.24 5192.8,2579.33 5162.08,2579.33 C5131.35,2579.33 5106.45,2604.24 5106.45,2634.96 C5106.45,2665.69 5131.35,2690.6 5162.08,2690.6 C5192.8,2690.6 5217.71,2665.69 5217.71,2634.96 M5202,2673"/>
</g>

<g fill="#000000" fill-opacity="1" stroke="#000000" stroke-opacity="1" stroke-width="1" stroke-linecap="square" stroke-linejoin="miter" stroke-miterlimit="2" transform="matrix(0.10159,0,0,0.10159,46.2877,6.49426)"
>
</g>

<g fill="#000000" fill-opacity="1" stroke="none" transform="matrix(0.10159,0,0,0.10159,46.2877,6.49426)"
>
<path vector-effect="none" fill-rule="nonzero" d="M5490,8692 C5490,8517 5492,8371 5494,8369 C5496,8367 5550,8366 5614,8368 L5730,8371 L5730,8691 L5730,9010 L5610,9010 L5490,9010 L5490,8692"/>
</g>

<g fill="#000000" fill-opacity="1" stroke="#000000" stroke-opacity="1" stroke-width="1" stroke-linecap="square" stroke-linejoin="miter" stroke-miterlimit="2" transform="matrix(0.10159,0,0,0.10159,46.2877,6.49426)"
>
</g>

<g fill="#000000" fill-opacity="1" stroke="none" transform="matrix(0.10159,0,0,0.10159,46.2877,6.49426)"
>
<path vector-effect="none" fill-rule="nonzero" d="M5820,8875 L5820,8740 L5890,8740 C5973,8740 6006,8727 6019,8688 C6041,8625 5995,8590 5893,8590 L5820,8590 L5820,8400 L5820,8210 L5920,8210 C5974,8210 6042,8215 6070,8221 C6227,8255 6274,8442 6151,8541 L6109,8574 L6158,8596 C6290,8654 6320,8831 6215,8936 C6156,8995 6100,9010 5943,9010 L5820,9010 L5820,8875"/>
</g>

<g fill="#000000" fill-opacity="1" stroke="#000000" stroke-opacity="1" stroke-width="1" stroke-linecap="square" stroke-linejoin="miter" stroke-miterlimit="2" transform="matrix(0.10159,0,0,0.10159,46.2877,6.49426)"
>
</g>

<g fill="#000000" fill-opacity="1" stroke="none" transform="matrix(0.10159,0,0,0.10159,46.2877,6.49426)"
>
<path vector-effect="none" fill-rule="nonzero" d="M2644,7576 C2609,7560 2570,7516 2570,7490 C2570,7481 2582,7468 2596,7461 C2638,7442 2832,7390 2840,7395 C2853,7403 2857,7473 2848,7508 C2840,7535 2829,7546 2787,7566 C2729,7593 2690,7596 2644,7576 "/>
</g>

<g fill="#000000" fill-opacity="1" stroke="#000000" stroke-opacity="1" stroke-width="1" stroke-linecap="square" stroke-linejoin="miter" stroke-miterlimit="2" transform="matrix(0.10159,0,0,0.10159,46.2877,6.49426)"
>
</g>

<g fill="#000000" fill-opacity="1" stroke="none" transform="matrix(0.10159,0,0,0.10159,46.2877,6.49426)"
>
<path vector-effect="none" fill-rule="nonzero" d="M8901,7581 C8852,7568 8817,7482 8834,7415 C8840,7391 8844,7389 8874,7394 C8892,7398 8950,7414 9003,7430 C9097,7460 9100,7461 9100,7491 C9100,7559 8994,7607 8901,7581 "/>
</g>

<g fill="#000000" fill-opacity="1" stroke="#000000" stroke-opacity="1" stroke-width="1" stroke-linecap="square" stroke-linejoin="miter" stroke-miterlimit="2" transform="matrix(0.10159,0,0,0.10159,46.2877,6.49426)"
>
</g>

<g fill="#000000" fill-opacity="1" stroke="none" transform="matrix(0.10159,0,0,0.10159,46.2877,6.49426)"
>
<path vector-effect="none" fill-rule="nonzero" d="M5640,7029 C5237,7004 4906,6905 4758,6766 C4573,6591 4510,6377 4523,5965 C4531,5689 4576,5561 4709,5430 C4819,5321 4937,5268 5182,5215 C5609,5123 6093,5120 6501,5205 C6795,5267 6952,5346 7056,5484 C7155,5615 7181,5713 7187,5990 C7195,6329 7160,6502 7051,6657 C6985,6750 6927,6799 6812,6859 C6636,6949 6382,7007 6060,7030 C5900,7041 5826,7041 5640,7029 M5110,6660 C5115,6650 5120,6637 5120,6631 C5120,6619 4984,6520 4967,6520 C4942,6520 4917,6557 4924,6584 C4931,6613 5013,6687 5043,6692 C5071,6697 5097,6685 5110,6660 M5442.52,6095.84 C5442.52,5977 5346.18,5880.67 5227.35,5880.67 C5108.51,5880.67 5012.17,5977 5012.17,6095.84 C5012.17,6214.68 5108.51,6311.01 5227.35,6311.01 C5346.18,6311.01 5442.52,6214.68 5442.52,6095.84 M6698.56,6095.22 C6698.56,5976.15 6602.04,5879.63 6482.97,5879.63 C6363.9,5879.63 6267.37,5976.15 6267.37,6095.22 C6267.37,6214.29 6363.9,6310.82 6482.97,6310.82 C6602.04,6310.82 6698.56,6214.29 6698.56,6095.22 M4843,5724 C4942,5605 5001,5568 5120,5551 C5205,5540 5236,5497 5190,5455 C5145,5414 4970,5458 4877,5534 C4771,5620 4733,5700 4782,5734 C4812,5755 4818,5754 4843,5724 "/>
</g>

<g fill="#000000" fill-opacity="1" stroke="#000000" stroke-opacity="1" stroke-width="1" stroke-linecap="square" stroke-linejoin="miter" stroke-miterlimit="2" transform="matrix(0.10159,0,0,0.10159,46.2877,6.49426)"
>
</g>

<g fill="#000000" fill-opacity="1" stroke="none" transform="matrix(0.10159,0,0,0.10159,46.2877,6.49426)"
>
<path vector-effect="none" fill-rule="nonzero" d="M9410,5007 C9410,4994 9392,4946 9370,4902 C9348,4858 9330,4818 9330,4813 C9330,4808 9354,4787 9383,4765 C9519,4664 9503,4668 9531,4730 L9549,4770 L9507,4770 C9469,4770 9429,4784 9440,4793 C9443,4795 9466,4809 9492,4823 C9531,4846 9580,4895 9580,4913 C9580,4919 9441,5020 9424,5027 C9414,5030 9410,5024 9410,5007 "/>
</g>

<g fill="#000000" fill-opacity="1" stroke="#000000" stroke-opacity="1" stroke-width="1" stroke-linecap="square" stroke-linejoin="miter" stroke-miterlimit="2" transform="matrix(0.10159,0,0,0.10159,46.2877,6.49426)"
>
</g>

<g fill="#000000" fill-opacity="1" stroke="none" transform="matrix(0.10159,0,0,0.10159,46.2877,6.49426)"
>
<path vector-effect="none" fill-rule="nonzero" d="M8633,3030 C8610,3018 8554,2976 8509,2937 L8427,2866 L8364,2934 C8319,2982 8297,2999 8287,2993 C8279,2989 8245,2959 8210,2928 L8148,2871 L8171,2842 C8203,2802 8418,2554 8503,2458 C8541,2415 8578,2380 8585,2380 C8605,2380 8894,2645 8926,2693 C8949,2727 8955,2748 8958,2805 C8961,2870 8959,2879 8928,2930 C8880,3009 8826,3044 8742,3048 C8689,3050 8666,3047 8633,3030 M8734,2829 C8748,2812 8760,2793 8760,2787 C8760,2772 8639,2650 8625,2651 C8620,2651 8600,2669 8582,2691 L8548,2729 L8570,2757 C8599,2794 8679,2860 8695,2860 C8702,2860 8720,2846 8734,2829 "/>
</g>

<g fill="#000000" fill-opacity="1" stroke="#000000" stroke-opacity="1" stroke-width="1" stroke-linecap="square" stroke-linejoin="miter" stroke-miterlimit="2" transform="matrix(0.10159,0,0,0.10159,46.2877,6.49426)"
>
</g>

<g fill="#000000" fill-opacity="1" stroke="none" transform="matrix(0.10159,0,0,0.10159,46.2877,6.49426)"
>
<path vector-effect="none" fill-rule="nonzero" d="M3376,2883 C3357,2862 3306,2802 3263,2749 C3220,2696 3146,2605 3098,2547 C3049,2489 3010,2437 3010,2431 C3010,2415 3293,2169 3342,2143 C3424,2099 3520,2120 3567,2192 C3588,2223 3592,2238 3587,2276 L3582,2322 L3612,2316 C3708,2297 3800,2385 3800,2496 C3800,2513 3786,2555 3769,2589 C3744,2638 3721,2665 3652,2723 C3604,2762 3532,2823 3493,2858 C3453,2892 3418,2920 3415,2920 C3413,2920 3395,2903 3376,2883 M3540,2591 C3615,2522 3615,2522 3596,2501 C3585,2490 3571,2480 3564,2480 C3550,2480 3418,2594 3411,2612 C3407,2624 3439,2660 3454,2660 C3460,2660 3499,2629 3540,2591 M3380,2422 L3443,2364 L3418,2335 L3393,2306 L3368,2326 C3355,2336 3322,2364 3295,2388 L3246,2431 L3275,2455 C3292,2468 3308,2479 3311,2480 C3315,2480 3346,2454 3380,2422 "/>
</g>

<g fill="#000000" fill-opacity="1" stroke="#000000" stroke-opacity="1" stroke-width="1" stroke-linecap="square" stroke-linejoin="miter" stroke-miterlimit="2" transform="matrix(0.10159,0,0,0.10159,46.2877,6.49426)"
>
</g>

<g fill="#000000" fill-opacity="1" stroke="none" transform="matrix(0.10159,0,0,0.10159,46.2877,6.49426)"
>
<path vector-effect="none" fill-rule="nonzero" d="M7820,2654 C7779,2630 7744,2605 7742,2600 C7740,2595 7761,2543 7789,2485 C7816,2427 7837,2380 7834,2380 C7831,2380 7782,2411 7725,2449 C7610,2526 7584,2538 7566,2521 C7559,2513 7553,2451 7550,2354 L7545,2199 L7477,2304 C7439,2362 7402,2410 7394,2410 C7369,2410 7240,2336 7240,2321 C7240,2308 7480,1868 7536,1778 L7560,1741 L7667,1791 C7727,1819 7779,1845 7784,1850 C7789,1855 7787,1923 7779,2009 C7772,2092 7769,2163 7773,2166 C7780,2174 7898,2091 7956,2038 C7979,2017 8002,2000 8008,2000 C8022,2000 8190,2096 8209,2115 C8221,2126 8216,2140 8181,2207 C8099,2360 7905,2700 7900,2699 C7897,2699 7861,2679 7820,2654 "/>
</g>

<g fill="#000000" fill-opacity="1" stroke="#000000" stroke-opacity="1" stroke-width="1" stroke-linecap="square" stroke-linejoin="miter" stroke-miterlimit="2" transform="matrix(0.10159,0,0,0.10159,46.2877,6.49426)"
>
</g>

<g fill="#000000" fill-opacity="1" stroke="none" transform="matrix(0.10159,0,0,0.10159,46.2877,6.49426)"
>
<path vector-effect="none" fill-rule="nonzero" d="M3985,2412 C3910,2306 3679,1967 3669,1948 C3662,1935 3675,1920 3730,1876 C3768,1845 3805,1820 3812,1820 C3825,1821 3922,1959 4102,2233 C4150,2306 4189,2368 4190,2371 C4190,2375 4154,2401 4111,2428 L4032,2478 L3985,2412"/>
</g>

<g fill="#000000" fill-opacity="1" stroke="#000000" stroke-opacity="1" stroke-width="1" stroke-linecap="square" stroke-linejoin="miter" stroke-miterlimit="2" transform="matrix(0.10159,0,0,0.10159,46.2877,6.49426)"
>
</g>

<g fill="#000000" fill-opacity="1" stroke="none" transform="matrix(0.10159,0,0,0.10159,46.2877,6.49426)"
>
<path vector-effect="none" fill-rule="nonzero" d="M6992,2246 C6951,2233 6914,2217 6909,2209 C6904,2201 6900,2176 6900,2154 C6900,2131 6894,2108 6888,2103 C6873,2091 6715,2040 6695,2040 C6687,2040 6666,2060 6648,2085 C6630,2109 6608,2129 6599,2130 C6579,2130 6449,2082 6436,2070 C6424,2058 6440,2035 6652,1749 C6769,1591 6842,1501 6853,1501 C6863,1500 6911,1514 6960,1531 L7049,1562 L7054,1614 C7074,1805 7100,2152 7100,2228 C7100,2278 7099,2278 6992,2246 M6883,1816 L6875,1777 L6832,1833 C6809,1864 6790,1893 6790,1898 C6790,1903 6811,1913 6838,1921 L6885,1936 L6888,1896 C6890,1873 6887,1837 6883,1816 "/>
</g>

<g fill="#000000" fill-opacity="1" stroke="#000000" stroke-opacity="1" stroke-width="1" stroke-linecap="square" stroke-linejoin="miter" stroke-miterlimit="2" transform="matrix(0.10159,0,0,0.10159,46.2877,6.49426)"
>
</g>

<g fill="#000000" fill-opacity="1" stroke="none" transform="matrix(0.10159,0,0,0.10159,46.2877,6.49426)"
>
<path vector-effect="none" fill-rule="nonzero" d="M4590,2223 C4590,2210 4482,1769 4478,1765 C4476,1763 4435,1770 4386,1781 C4337,1792 4294,1797 4290,1793 C4282,1784 4250,1659 4250,1638 C4250,1630 4279,1618 4323,1608 C4362,1598 4487,1568 4600,1541 C4713,1514 4807,1494 4810,1496 C4812,1499 4822,1537 4831,1581 C4842,1638 4844,1662 4836,1669 C4830,1673 4797,1683 4764,1690 C4730,1697 4697,1705 4691,1709 C4682,1715 4693,1776 4730,1939 C4758,2062 4780,2169 4778,2178 C4774,2199 4590,2243 4590,2223 "/>
</g>

<g fill="#000000" fill-opacity="1" stroke="#000000" stroke-opacity="1" stroke-width="1" stroke-linecap="square" stroke-linejoin="miter" stroke-miterlimit="2" transform="matrix(0.10159,0,0,0.10159,46.2877,6.49426)"
>
</g>

<g fill="#000000" fill-opacity="1" stroke="none" transform="matrix(0.10159,0,0,0.10159,46.2877,6.49426)"
>
<path vector-effect="none" fill-rule="nonzero" d="M5865,2056 C5860,2053 5829,2044 5798,2036 C5723,2015 5633,1934 5600,1858 C5524,1682 5601,1473 5772,1394 C5827,1369 5846,1365 5925,1365 C6040,1366 6098,1390 6170,1465 C6242,1542 6238,1553 6135,1586 L6050,1614 L6019,1585 C5992,1558 5982,1555 5924,1555 C5860,1555 5858,1556 5820,1596 C5756,1665 5755,1763 5818,1825 C5852,1859 5880,1870 5933,1870 C5974,1870 6017,1850 6033,1823 C6037,1816 6049,1810 6058,1810 C6084,1811 6215,1886 6218,1902 C6223,1928 6118,2014 6059,2034 C6008,2051 5887,2064 5865,2056 "/>
</g>

<g fill="#000000" fill-opacity="1" stroke="#000000" stroke-opacity="1" stroke-width="1" stroke-linecap="square" stroke-linejoin="miter" stroke-miterlimit="2" transform="matrix(0.10159,0,0,0.10159,46.2877,6.49426)"
>
</g>

<g fill="#000000" fill-opacity="1" stroke="none" transform="matrix(0.10159,0,0,0.10159,46.2877,6.49426)"
>
<path vector-effect="none" fill-rule="nonzero" d="M3048.4,4894.37 C3048.4,4974.15 2983.73,5038.82 2903.95,5038.82 C2824.17,5038.82 2759.5,4974.15 2759.5,4894.37 C2759.5,4814.6 2824.17,4749.93 2903.95,4749.93 C2983.73,4749.93 3048.4,4814.6 3048.4,4894.37 M2832,5020"/>
</g>

<g fill="#000000" fill-opacity="1" stroke="#000000" stroke-opacity="1" stroke-width="1" stroke-linecap="square" stroke-linejoin="miter" stroke-miterlimit="2" transform="matrix(0.10159,0,0,0.10159,46.2877,6.49426)"
>
</g>

<g fill="#000000" fill-opacity="1" stroke="#000000" stroke-opacity="1" stroke-width="1" stroke-linecap="square" stroke-linejoin="miter" stroke-miterlimit="2" transform="matrix(0.10159,0,0,0.10159,46.2877,6.49426)"
>
</g>

<g fill="#000000" fill-opacity="1" stroke="#000000" stroke-opacity="1" stroke-width="1" stroke-linecap="square" stroke-linejoin="miter" stroke-miterlimit="2" transform="matrix(0.10159,0,0,0.10159,46.2877,6.49426)"
>
</g>

<g fill="#000000" fill-opacity="1" stroke="#000000" stroke-opacity="1" stroke-width="1" stroke-linecap="square" stroke-linejoin="miter" stroke-miterlimit="2" transform="matrix(0.10159,0,0,0.10159,46.2877,6.49426)"
>
</g>

<g fill="#000000" fill-opacity="1" stroke="#000000" stroke-opacity="1" stroke-width="1" stroke-linecap="square" stroke-linejoin="miter" stroke-miterlimit="2" transform="matrix(1,0,0,1,0,0)"
>
</g>

<g fill="#000000" fill-opacity="1" stroke="#000000" stroke-opacity="1" stroke-width="1" stroke-linecap="square" stroke-linejoin="miter" stroke-miterlimit="2" transform="matrix(1,0,0,1,0,0)"
>
</g>

<g fill="#000000" fill-opacity="1" stroke="#000000" stroke-opacity="1" stroke-width="1" stroke-linecap="square" stroke-linejoin="miter" stroke-miterlimit="2" transform="matrix(1.0159,0,0,1.0159,46.2877,6.49426)"
>
</g>

<g fill="#000000" fill-opacity="1" stroke="#000000" stroke-opacity="1" stroke-width="1" stroke-linecap="square" stroke-linejoin="miter" stroke-miterlimit="2" transform="matrix(1.0159,0,0,1.0159,46.2877,6.49426)"
>
</g>

<g fill="#000000" fill-opacity="1" stroke="#000000" stroke-opacity="1" stroke-width="1" stroke-linecap="square" stroke-linejoin="miter" stroke-miterlimit="2" transform="matrix(0.10159,0,0,0.10159,46.2877,6.49426)"
>
</g>

<g fill="#000000" fill-opacity="1" stroke="#000000" stroke-opacity="1" stroke-width="1" stroke-linecap="square" stroke-linejoin="miter" stroke-miterlimit="2" transform="matrix(0.10159,0,0,0.10159,46.2877,6.49426)"
>
</g>

<g fill="#000000" fill-opacity="1" stroke="#000000" stroke-opacity="1" stroke-width="1" stroke-linecap="square" stroke-linejoin="miter" stroke-miterlimit="2" transform="matrix(0.10159,0,0,0.10159,46.2877,6.49426)"
>
</g>

<g fill="#000000" fill-opacity="1" stroke="#000000" stroke-opacity="1" stroke-width="1" stroke-linecap="square" stroke-linejoin="miter" stroke-miterlimit="2" transform="matrix(0.10159,0,0,0.10159,46.2877,6.49426)"
>
</g>

<g fill="#000000" fill-opacity="1" stroke="#000000" stroke-opacity="1" stroke-width="1" stroke-linecap="square" stroke-linejoin="miter" stroke-miterlimit="2" transform="matrix(1,0,0,1,0,0)"
>
</g>

<g fill="#000000" fill-opacity="1" stroke="#000000" stroke-opacity="1" stroke-width="1" stroke-linecap="square" stroke-linejoin="miter" stroke-miterlimit="2" transform="matrix(1,0,0,1,0,0)"
>
</g>

<g fill="#000000" fill-opacity="1" stroke="#000000" stroke-opacity="1" stroke-width="1" stroke-linecap="square" stroke-linejoin="miter" stroke-miterlimit="2" transform="matrix(1.0159,0,0,1.0159,46.2877,6.49426)"
>
</g>

<g fill="#000000" fill-opacity="1" stroke="#000000" stroke-opacity="1" stroke-width="1" stroke-linecap="square" stroke-linejoin="miter" stroke-miterlimit="2" transform="matrix(1,0,0,1,0,0)"
>
</g>

<g fill="#000000" fill-opacity="1" stroke="#000000" stroke-opacity="1" stroke-width="1" stroke-linecap="square" stroke-linejoin="miter" stroke-miterlimit="2" transform="matrix(1,0,0,1,0,0)"
>
</g>

<g fill="#000000" fill-opacity="1" stroke="#000000" stroke-opacity="1" stroke-width="1" stroke-linecap="square" stroke-linejoin="miter" stroke-miterlimit="2" transform="matrix(1,0,0,1,0,0)"
>
</g>

<g fill="#000000" fill-opacity="1" stroke="#000000" stroke-opacity="1" stroke-width="1" stroke-linecap="square" stroke-linejoin="miter" stroke-miterlimit="2" transform="matrix(1,0,0,1,0,0)"
>
</g>
</g>
</svg>
